<?xml version="1.0" encoding="UTF-8" standalone="no"?>
<svg
   width="65.949997"
   height="63.750999"
   version="1.1"
   id="svg8"
   sodipodi:docname="logo.svg"
   inkscape:version="1.1.1 (3bf5ae0d25, 2021-09-20)"
   xmlns:inkscape="http://www.inkscape.org/namespaces/inkscape"
   xmlns:sodipodi="http://sodipodi.sourceforge.net/DTD/sodipodi-0.dtd"
   xmlns="http://www.w3.org/2000/svg"
   xmlns:svg="http://www.w3.org/2000/svg">
  <defs
     id="defs12" />
  <sodipodi:namedview
     id="namedview10"
     pagecolor="#ffffff"
     bordercolor="#666666"
     borderopacity="1.0"
     inkscape:pageshadow="2"
     inkscape:pageopacity="0.0"
     inkscape:pagecheckerboard="0"
     showgrid="false"
     inkscape:zoom="12.621212"
     inkscape:cx="33"
     inkscape:cy="24.482593"
     inkscape:window-width="1920"
     inkscape:window-height="987"
     inkscape:window-x="0"
     inkscape:window-y="56"
     inkscape:window-maximized="0"
     inkscape:current-layer="svg8" />
  <g
     fill="#f5f5f5"
     fill-rule="evenodd"
     id="g6"
     transform="translate(0,-2.198)">
    <path
       d="M 51.294,18.591 V 5.841 c 0,-2.012 -1.64,-3.643 -3.664,-3.643 H 3.664 C 1.64,2.198 0,3.83 0,5.841 v 56.465 c 0,2.012 1.64,3.643 3.664,3.643 H 47.63 c 2.023,0 3.664,-1.631 3.664,-3.643 V 49.556 H 40.302 v 3.643 c 0,1.006 -0.82,1.821 -1.832,1.821 H 12.823 a 1.827,1.827 0 0 1 -1.832,-1.821 v -38.25 c 0,-1.006 0.82,-1.822 1.832,-1.822 H 38.47 c 1.012,0 1.832,0.816 1.832,1.821 v 3.643 z"
       id="path2" />
    <path
       d="m 35.722,16.77 h -20.15 a 0.913,0.913 0 0 0 -0.917,0.91 v 19.126 c 0,0.503 0.41,0.91 0.916,0.91 h 12.366 c 0.253,0 0.458,0.204 0.458,0.456 v 5.464 a 0.457,0.457 0 0 1 -0.458,0.455 h -4.58 A 0.457,0.457 0 0 1 22.899,43.636 V 41.36 h -8.244 v 9.108 c 0,0.503 0.41,0.91 0.916,0.91 h 20.151 a 0.913,0.913 0 0 0 0.916,-0.91 V 31.34 c 0,-0.503 -0.41,-0.91 -0.916,-0.91 H 23.357 A 0.457,0.457 0 0 1 22.899,29.974 V 24.51 c 0,-0.251 0.205,-0.455 0.458,-0.455 h 4.58 c 0.253,0 0.458,0.204 0.458,0.455 v 2.277 h 8.243 V 17.68 c 0,-0.503 -0.41,-0.91 -0.916,-0.91 z m 15.572,21.857 v 7.286 H 40.302 V 22.234 h 10.992 v 7.286 h 3.663 V 2.198 H 65.95 v 63.75 H 54.957 v -27.32 h -3.663 z"
       id="path4" />
  </g>
</svg>
